<svg width="90" height="50" viewBox="0 0 1719 934" fill="none" xmlns="http://www.w3.org/2000/svg">
<path d="M550.564 538.506V769.431C543.134 780.427 530.354 792.612 512.225 805.986C494.096 819.36 469.725 831.1 439.114 841.205C408.502 851.012 370.46 855.916 324.989 855.916C286.947 855.916 252.026 849.08 220.226 835.409C188.425 821.738 160.785 801.974 137.307 776.118C114.125 749.964 96.1444 718.609 83.3647 682.054C70.8823 645.498 64.6411 604.484 64.6411 559.013V480.552C64.6411 435.972 70.4365 395.85 82.0273 360.186C93.6182 324.224 110.41 293.464 132.403 267.905C154.396 242.346 180.847 222.879 211.755 209.505C242.961 195.834 277.882 188.998 316.519 188.998C364.665 188.998 405.233 197.32 438.222 213.963C471.211 230.606 496.919 253.491 515.346 282.616C534.069 311.445 545.66 344.137 550.118 380.692H495.285C491.124 354.836 482.505 331.06 469.428 309.364C456.351 287.371 437.331 269.688 412.366 256.314C387.698 242.94 355.749 236.253 316.519 236.253C285.015 236.253 256.93 242.048 232.262 253.639C207.892 265.23 187.385 281.725 170.742 303.123C154.098 324.521 141.467 350.229 132.849 380.247C124.23 409.967 119.92 443.104 119.92 479.66V559.013C119.92 597.054 124.676 631.381 134.186 661.993C143.994 692.604 157.962 718.907 176.091 740.899C194.221 762.892 215.916 779.833 241.178 791.721C266.44 803.312 294.526 809.107 325.435 809.107C358.424 809.107 386.509 805.986 409.691 799.745C432.873 793.504 451.448 786.074 465.416 777.455C479.682 768.539 489.935 760.217 496.176 752.49V585.315H321.868V538.506H550.564Z" fill="url(#paint0_linear_5_10)"/>
<path d="M576.48 820.447H621.646V630.994C624.739 625.298 628.32 620.089 632.389 615.369C636.62 610.649 641.178 606.499 646.061 602.918C652.083 598.849 658.674 595.675 665.836 593.397C672.997 590.955 680.729 589.735 689.029 589.735C698.632 589.735 707.096 590.874 714.42 593.153C721.907 595.431 728.255 599.093 733.463 604.139C738.508 609.184 742.333 615.776 744.938 623.914C747.542 632.052 748.844 641.981 748.844 653.699V820.447H794.01V652.723C794.01 635.145 791.812 620.008 787.418 607.313C783.186 594.455 777.083 583.875 769.107 575.574C761.132 567.274 751.448 561.17 740.055 557.264C728.824 553.358 716.292 551.404 702.457 551.404C692.203 551.567 682.438 553.113 673.16 556.043C664.046 558.81 655.582 562.798 647.77 568.006C642.561 571.424 637.597 575.493 632.877 580.213C628.32 584.77 624.088 589.816 620.182 595.35L617.008 556.287H576.48V820.447Z" fill="url(#paint1_linear_5_10)"/>
<rect x="479" y="430" width="73" height="73.1728" fill="url(#paint2_linear_5_10)"/>
<path d="M913.732 546.122L913.479 480.486H855.432V493.765H899.188L899.062 541.316C896.617 544.52 893.708 547.175 890.336 549.283C887.048 551.307 883.465 552.909 879.586 554.089C875.792 555.354 871.83 556.239 867.699 556.745C863.652 557.166 859.731 557.335 855.938 557.25C849.867 557.166 844.429 556.112 839.624 554.089C834.818 552.065 830.56 549.368 826.851 545.995C823.057 542.623 819.811 538.66 817.113 534.107C814.415 529.555 812.181 524.749 810.41 519.69C808.64 514.632 807.291 509.405 806.363 504.009C805.52 498.613 805.056 493.344 804.972 488.201V462.149C805.056 457.175 805.478 452.074 806.237 446.847C807.08 441.535 808.302 436.392 809.904 431.418C811.59 426.444 813.698 421.722 816.228 417.254C818.757 412.785 821.834 408.907 825.459 405.619C829 402.247 833.132 399.591 837.853 397.652C842.574 395.713 847.886 394.743 853.788 394.743C860.279 394.743 866.013 395.755 870.987 397.778C876.045 399.802 880.43 402.626 884.139 406.251C887.849 409.877 890.884 414.219 893.245 419.277C895.69 424.336 897.502 429.816 898.683 435.718H913.479C912.636 427.624 910.57 420.247 907.282 413.586C904.078 406.926 899.863 401.193 894.636 396.387C889.409 391.582 883.338 387.872 876.425 385.258C869.511 382.645 861.924 381.338 853.661 381.338C846.41 381.338 839.792 382.476 833.806 384.752C827.82 386.944 822.509 389.938 817.872 393.731C813.066 397.61 808.935 402.162 805.478 407.39C802.021 412.617 799.155 418.223 796.878 424.209C794.602 430.195 792.874 436.434 791.693 442.926C790.597 449.418 790.007 455.91 789.923 462.402V488.201C790.007 494.777 790.639 501.395 791.82 508.056C793.084 514.632 794.981 520.955 797.511 527.025C799.871 533.096 802.864 538.787 806.49 544.098C810.115 549.325 814.373 553.878 819.263 557.756C824.068 561.635 829.506 564.712 835.577 566.988C841.731 569.265 848.476 570.445 855.811 570.529C862.134 570.529 868.289 569.897 874.275 568.632C880.345 567.452 886.078 565.555 891.474 562.941C895.69 561.002 899.652 558.642 903.362 555.859C907.156 553.077 910.612 549.831 913.732 546.122ZM1049.05 568H1065.24L1065.11 566.482C1063.93 562.267 1062.92 557.841 1062.08 553.204C1061.32 548.567 1060.94 543.93 1060.94 539.292V473.151C1060.85 465.732 1059.42 459.24 1056.64 453.676C1053.94 448.111 1050.27 443.432 1045.63 439.638C1040.91 436.013 1035.39 433.273 1029.07 431.418C1022.74 429.563 1015.96 428.636 1008.71 428.636C1001.46 428.636 994.627 429.647 988.22 431.671C981.896 433.694 976.332 436.477 971.526 440.018C966.721 443.643 962.885 447.901 960.018 452.791C957.152 457.681 955.592 463.034 955.339 468.852L970.515 468.978C970.599 464.678 971.695 460.842 973.803 457.47C975.995 454.013 978.777 451.104 982.149 448.744C985.606 446.383 989.569 444.57 994.037 443.306C998.506 442.041 1003.18 441.409 1008.07 441.409C1013.39 441.409 1018.32 442.125 1022.87 443.559C1027.51 444.908 1031.51 446.889 1034.89 449.502C1038.26 452.116 1040.91 455.404 1042.85 459.367C1044.79 463.245 1045.8 467.756 1045.89 472.898V488.327H1016.17C1007.65 488.411 999.517 489.255 991.761 490.856C984.004 492.374 977.217 494.819 971.4 498.191C965.498 501.732 960.777 506.243 957.236 511.723C953.779 517.203 952.051 523.864 952.051 531.705C952.051 537.606 953.231 542.96 955.592 547.766C957.952 552.487 961.156 556.534 965.203 559.906C969.25 563.279 974.056 565.892 979.62 567.747C985.185 569.602 991.128 570.529 997.452 570.529C1002.51 570.529 1007.36 569.981 1012 568.885C1016.72 567.874 1021.18 566.356 1025.4 564.333C1029.53 562.393 1033.33 560.033 1036.78 557.25C1040.32 554.384 1043.4 551.222 1046.01 547.766C1046.18 551.307 1046.48 554.806 1046.9 558.262C1047.41 561.719 1048.12 564.965 1049.05 568ZM999.096 556.998C994.712 556.998 990.538 556.407 986.576 555.227C982.697 553.962 979.325 552.15 976.458 549.789C973.592 547.513 971.316 544.73 969.629 541.442C967.943 538.154 967.1 534.445 967.1 530.313C967.1 525.255 968.196 520.955 970.388 517.414C972.665 513.789 975.742 510.754 979.62 508.309C984.426 505.273 990.201 503.166 996.946 501.985C1003.69 500.805 1010.81 500.173 1018.32 500.088H1045.89V530.187C1043.95 534.234 1041.42 537.901 1038.3 541.189C1035.18 544.478 1031.6 547.302 1027.55 549.663C1023.5 552.023 1019.08 553.878 1014.27 555.227C1009.47 556.492 1004.41 557.082 999.096 556.998ZM1111.02 431.165H1097.36V568H1111.65L1111.78 463.793C1112.45 461.264 1113.29 458.734 1114.31 456.205C1115.32 453.591 1116.67 451.273 1118.35 449.25C1120.29 447.057 1122.69 445.329 1125.56 444.064C1128.51 442.715 1132.14 441.999 1136.44 441.915C1140.48 441.83 1143.77 442.42 1146.3 443.685C1148.91 444.95 1150.98 446.636 1152.5 448.744C1154.02 450.936 1155.07 453.465 1155.66 456.332C1156.25 459.114 1156.54 461.938 1156.54 464.805L1156.67 568H1170.83L1170.96 464.931C1170.96 464.51 1170.96 464.13 1170.96 463.793C1170.96 463.456 1170.96 463.076 1170.96 462.655C1171.55 460.125 1172.35 457.638 1173.36 455.193C1174.46 452.748 1175.98 450.556 1177.92 448.617C1179.77 446.678 1182.13 445.118 1185 443.938C1187.95 442.673 1191.53 441.999 1195.75 441.915C1199.88 441.83 1203.25 442.505 1205.87 443.938C1208.48 445.287 1210.54 447.1 1212.06 449.376C1213.58 451.737 1214.59 454.435 1215.1 457.47C1215.69 460.421 1215.98 463.329 1215.98 466.196L1216.11 568H1230.4L1230.53 466.322C1230.53 461.179 1229.98 456.289 1228.88 451.652C1227.79 447.015 1225.97 443.011 1223.44 439.638C1221.17 436.266 1218.01 433.61 1213.96 431.671C1209.91 429.647 1205.02 428.636 1199.29 428.636C1195.33 428.636 1191.7 429.184 1188.41 430.28C1185.13 431.292 1182.17 432.64 1179.56 434.327C1177.2 435.929 1175.09 437.783 1173.24 439.891C1171.38 441.999 1169.82 444.233 1168.56 446.594C1167.72 444.149 1166.58 441.872 1165.14 439.765C1163.8 437.573 1162.15 435.718 1160.21 434.2C1157.94 432.43 1155.24 431.081 1152.12 430.153C1149 429.142 1145.37 428.636 1141.24 428.636C1133.74 428.804 1127.54 430.533 1122.65 433.821C1117.85 437.025 1114.09 441.282 1111.4 446.594L1111.02 431.165ZM1324.49 570.529C1335.87 570.529 1345.86 568.295 1354.46 563.827C1363.06 559.358 1369.93 553.499 1375.08 546.248L1365.59 539.04C1360.7 545.11 1354.84 549.747 1348.01 552.951C1341.18 556.154 1333.55 557.714 1325.12 557.63C1317.79 557.63 1311.08 556.197 1305.01 553.33C1299.03 550.379 1293.93 546.459 1289.71 541.569C1285.41 536.763 1282.08 531.241 1279.72 525.002C1277.36 518.763 1276.01 512.018 1275.67 504.768V500.594H1378.11V491.362C1378.03 482.678 1376.76 474.542 1374.32 466.955C1371.87 459.282 1368.25 452.58 1363.44 446.847C1358.64 441.198 1352.73 436.772 1345.74 433.568C1338.74 430.28 1330.73 428.636 1321.71 428.636C1313.11 428.636 1305.1 430.448 1297.68 434.074C1290.26 437.615 1283.85 442.463 1278.46 448.617C1272.89 454.856 1268.51 462.233 1265.3 470.749C1262.18 479.18 1260.62 488.243 1260.62 497.938V503.376C1260.62 512.566 1262.18 521.25 1265.3 529.428C1268.42 537.522 1272.81 544.646 1278.46 550.801C1284.02 556.871 1290.72 561.677 1298.56 565.218C1306.41 568.759 1315.05 570.529 1324.49 570.529ZM1321.71 441.662C1328.2 441.662 1333.97 442.926 1339.03 445.456C1344.09 447.901 1348.39 451.189 1351.93 455.32C1355.39 459.451 1358.09 464.257 1360.03 469.737C1362.05 475.217 1363.06 480.739 1363.06 486.304V487.695H1276.31C1277.23 481.119 1278.96 475.006 1281.49 469.357C1284.02 463.709 1287.22 458.819 1291.1 454.688C1294.98 450.641 1299.49 447.479 1304.63 445.203C1309.78 442.842 1315.47 441.662 1321.71 441.662ZM1421.61 383.867V397.525H1466.38V554.468H1421.61V568H1528.22V554.468H1482.06V397.525H1528.22V383.867H1421.61ZM1577.17 568H1592.34V474.542C1593.78 470.158 1595.8 466.027 1598.41 462.149C1601.03 458.186 1604.1 454.772 1607.64 451.905C1611.44 448.87 1615.65 446.467 1620.29 444.697C1624.93 442.842 1629.86 441.915 1635.09 441.915C1641.07 441.83 1646.22 442.631 1650.52 444.317C1654.9 446.004 1658.57 448.491 1661.52 451.779C1664.39 455.067 1666.49 459.114 1667.84 463.919C1669.28 468.725 1670.03 474.247 1670.12 480.486V568H1685.17V480.233C1685.17 472.055 1684.16 464.763 1682.13 458.355C1680.11 451.947 1677.12 446.509 1673.15 442.041C1669.28 437.657 1664.43 434.327 1658.61 432.05C1652.88 429.774 1646.26 428.636 1638.75 428.636C1633.11 428.636 1627.75 429.479 1622.69 431.165C1617.72 432.851 1613.17 435.128 1609.04 437.994C1605.49 440.439 1602.29 443.348 1599.42 446.72C1596.56 450.093 1594.07 453.76 1591.96 457.723L1591.08 431.165H1577.17V568Z" fill="black"/>
<defs>
<linearGradient id="paint0_linear_5_10" x1="681.737" y1="1404.81" x2="-180.395" y2="813.026" gradientUnits="userSpaceOnUse">
<stop stop-color="#AD00FF"/>
<stop offset="1"/>
</linearGradient>
<linearGradient id="paint1_linear_5_10" x1="60.7387" y1="188.125" x2="630.203" y2="1172.39" gradientUnits="userSpaceOnUse">
<stop stop-color="#AD00FF"/>
<stop offset="1"/>
</linearGradient>
<linearGradient id="paint2_linear_5_10" x1="414.69" y1="383.352" x2="664.855" y2="558.627" gradientUnits="userSpaceOnUse">
<stop stop-color="#AD00FF"/>
<stop offset="1"/>
</linearGradient>
</defs>
</svg>
